<svg width="140" height="140" viewBox="0 0 140 140" xmlns="http://www.w3.org/2000/svg" role="img">
<title>AI sparkle icon</title>
<rect x="4" y="4" width="132" height="132" rx="16" fill="#f4ecd9" stroke="#7a2233" stroke-width="1"/>
<path d="M70 40 C74 62 80 68 102 72 C80 76 74 82 70 104 C66 82 60 76 38 72 C60 68 66 62 70 40 Z" fill="#7a2233"/>
<path d="M98 40 l1.6 6.4 l6.4 1.6 l-6.4 1.6 l-1.6 6.4 l-1.6 -6.4 l-6.4 -1.6 l6.4 -1.6 Z" fill="#211d1b"/>
<path d="M46 88 l1.3 5.2 l5.2 1.3 l-5.2 1.3 l-1.3 5.2 l-1.3 -5.2 l-5.2 -1.3 l5.2 -1.3 Z" fill="#211d1b"/>
</svg>
